<svg width="826" height="647" viewBox="0 0 826 647" fill="none" xmlns="http://www.w3.org/2000/svg">
<path d="M27.767 359.875V517.875L31.767 619.875H64.767L62.767 521.875L75.767 427.875L97.767 506.875L111.767 617.875L151.767 615.875L130.767 501.875L124.767 359.875H27.767Z" fill="#598BFF"/>
<path d="M36.7667 614.875V624.875C36.7667 624.875 13.7667 646.875 32.7667 646.875C51.7667 646.875 52.7667 641.875 52.7667 641.875C52.7667 641.875 59.7667 641.875 59.7667 639.875V615.875L36.7667 614.875Z" fill="#2F2E41"/>
<path d="M142.767 614.875V624.875C142.767 624.875 165.767 646.875 146.767 646.875C127.767 646.875 126.767 641.875 126.767 641.875C126.767 641.875 119.767 641.875 119.767 639.875V615.875L142.767 614.875Z" fill="#2F2E41"/>
<path d="M68.7667 225.875C82.0216 225.875 92.7667 215.129 92.7667 201.875C92.7667 188.62 82.0216 177.875 68.7667 177.875C55.5119 177.875 44.7667 188.62 44.7667 201.875C44.7667 215.129 55.5119 225.875 68.7667 225.875Z" fill="#FFB8B8"/>
<path d="M49.767 209.875L50.767 245.875L82.767 244.875V216.875L49.767 209.875Z" fill="#FFB8B8"/>
<path d="M64.767 241.875L49.767 230.875L43.767 365.875L114.767 363.875L97.767 245.875L82.767 231.501L64.767 241.875Z" fill="#CFCCE0"/>
<path d="M44.7667 238.875L50.2296 226.536L51.7667 248.875C51.7667 248.875 64.7667 290.875 63.7667 327.875C62.7667 364.875 68.7667 451.875 60.7667 452.875C52.7667 453.875 18.7667 455.875 18.7667 448.875C18.7667 441.875 16.7667 255.875 16.7667 255.875L44.7667 238.875Z" fill="#2F2E41"/>
<path d="M82.7667 227.875L94.7667 240.875L124.767 251.875C124.767 251.875 124.767 379.875 130.767 409.875C136.767 439.875 147.767 442.875 133.767 443.875C119.767 444.875 120.767 439.875 120.767 439.875C120.767 439.875 130.767 389.875 117.767 379.875C104.767 369.875 79.7667 311.875 81.7667 279.875C83.7667 247.875 80.7667 227.875 82.7667 227.875Z" fill="#2F2E41"/>
<path d="M8.76672 411.875L10.7667 420.875C10.7667 420.875 11.7667 458.875 25.7667 453.875C39.7667 448.875 24.7667 417.875 24.7667 417.875V411.875H8.76672Z" fill="#FFB8B8"/>
<path d="M133.267 389.375L121.767 403.875L117.767 390.875L121.267 376.375L133.267 389.375Z" fill="#FFB8B8"/>
<path d="M111.767 250.875L121.267 250.591C122.938 250.451 124.606 250.904 125.977 251.87C127.348 252.836 128.336 254.254 128.767 255.875C130.767 261.875 137.767 322.875 137.767 322.875C137.767 322.875 143.767 332.875 141.767 347.875L134.767 403.875L114.767 381.875L117.767 331.875L111.767 250.875Z" fill="#2F2E41"/>
<path d="M21.7667 255.875L19.1115 254.451C19.1115 254.451 4.76675 259.875 5.76675 263.875C6.76675 267.875 -2.23325 407.875 0.766746 412.875C3.76675 417.875 27.7667 413.875 27.7667 413.875L21.7667 255.875Z" fill="#2F2E41"/>
<path d="M91.5567 186.971C91.5567 186.971 99.5631 176.114 85.911 173.016C85.911 173.016 74.4575 163.677 63.1566 170.769C63.1566 170.769 54.6832 167.337 51.2291 173.393C51.2291 173.393 50.4454 169.996 54.526 168.408C54.526 168.408 46.0526 164.976 44.4804 175.684C44.4804 175.684 39.142 185.839 41.4931 196.029C43.8443 206.219 44.9425 207.474 44.9425 207.474C44.9425 207.474 41.7203 186.36 56.9423 187.501C72.1643 188.643 90.3811 181.876 89.907 193.839C89.4329 205.802 91.4721 209.383 91.4721 209.383C91.4721 209.383 105.286 193.91 91.5567 186.971Z" fill="#161616"/>
<path fill-rule="evenodd" clip-rule="evenodd" d="M751.739 175.809H648.064V225.274H751.739V175.809ZM472.343 175.809H632.249V225.274H472.343V175.809ZM472.343 241.089H632.249V260.418H472.343V241.089ZM472.343 276.233H632.249V302.591H472.343V276.233ZM557.568 318.406H632.249V384.301H557.568V318.406ZM541.753 318.406H472.343V384.301H541.753V318.406ZM541.753 400.116H406V433.379L541.753 433.379V400.116ZM557.568 433.379L632.249 433.379V400.116H557.568V433.379ZM648.064 318.406V384.301H825.787V318.406H648.064ZM648.064 400.116V433.379H825.787V400.116H648.064ZM648.064 241.089V302.591H751.739V241.089H648.064ZM767.553 175.809V225.274H825.787V175.809H767.553ZM767.553 302.591V241.089H825.787V302.591H767.553ZM406 175.809H456.528V225.274H406V175.809ZM406 241.089H456.528V302.591H406V241.089ZM406 318.406H456.528V384.301H406V318.406Z" fill="white"/>
<path d="M640.156 330.706C651.317 330.706 660.364 321.659 660.364 310.498C660.364 299.338 651.317 290.29 640.156 290.29C628.996 290.29 619.948 299.338 619.948 310.498C619.948 321.659 628.996 330.706 640.156 330.706Z" fill="#598BFF"/>
<path d="M641.913 0C621.649 2.65216e-06 602.214 8.05005 587.885 22.3792C573.556 36.7084 565.506 56.143 565.506 76.4075C565.506 118.606 641.913 278.342 641.913 278.342C641.913 278.342 718.321 118.606 718.321 76.4075C718.321 56.143 710.271 36.7084 695.942 22.3792C681.612 8.05005 662.178 2.65216e-06 641.913 0ZM641.913 112.792C634.717 112.792 627.683 110.658 621.699 106.66C615.716 102.662 611.052 96.9796 608.298 90.3312C605.545 83.6828 604.824 76.3671 606.228 69.3092C607.632 62.2513 611.097 55.7682 616.186 50.6797C621.274 45.5912 627.757 42.126 634.815 40.7221C641.873 39.3181 649.189 40.0387 655.837 42.7925C662.486 45.5464 668.168 50.2099 672.166 56.1933C676.164 62.1767 678.298 69.2113 678.298 76.4075C678.298 86.0573 674.465 95.3118 667.641 102.135C660.818 108.959 651.563 112.792 641.913 112.792Z" fill="#598BFF"/>
</svg>
