<?xml version="1.0" encoding="utf-8"?>
<!-- Generator: Adobe Illustrator 23.0.1, SVG Export Plug-In . SVG Version: 6.00 Build 0)  -->
<svg version="1.1" id="Layer_1" xmlns="http://www.w3.org/2000/svg" xmlns:xlink="http://www.w3.org/1999/xlink" x="0px" y="0px"
	 viewBox="0 0 1231 587.5" style="enable-background:new 0 0 1231 587.5;" xml:space="preserve">
<style type="text/css">
	.st0{fill:#050401;}
</style>
<g>
	<path class="st0" d="M493.6,181.6c-6.7-23.1-7.1-45.5-1.1-67.1c6-21.6,17.1-40.6,33.2-57c16.1-16.4,35.7-28,58.8-34.7
		c23.1-6.7,41.4-8,55-3.8c13.5,4.2,20.5,11.9,20.8,23.1c0.4,5.7-0.6,10.5-3,14.4c-2.4,3.8-5.7,6.8-9.7,8.8c-4,2-8.7,3.2-14,3.5
		c-26.1,2.2-48.4,8.3-66.8,18.2c-18.4,10-31.6,22.4-39.6,37.3c-8,14.9-9.4,31.2-4.2,48.9L493.6,181.6z"/>
	<path class="st0" d="M29.5,587.5c-8.5,0-15.5-2.8-21.1-8.4C2.8,573.5,0,566.5,0,558V294.2c0.4-30.5,7.5-57.8,21.4-82.1
		s32.8-43.5,56.7-57.6c23.9-14.1,50.9-21.1,81-21.1c30.5,0,57.6,7,81.6,21.1c23.9,14.1,42.9,33.3,57,57.6
		c14.1,24.3,21.1,51.7,21.1,82.1c0,30.5-6.5,57.8-19.4,81.8c-12.9,24.1-30.6,43.2-52.9,57.3c-22.4,14.1-47.6,21.1-75.8,21.1
		c-22.8,0-43.7-4.7-62.8-14.2C88.8,430.8,72.5,418,59,401.8V558c0,8.5-2.7,15.5-8.1,21.1C45.5,584.7,38.4,587.5,29.5,587.5z
		 M159.6,402.5c19.7,0,37.3-4.7,52.8-14.2c15.5-9.5,27.7-22.4,36.8-38.9c9.1-16.4,13.6-34.9,13.6-55.4c0-20.9-4.6-39.5-13.6-56
		c-9.1-16.4-21.4-29.4-36.8-38.9c-15.5-9.5-33.1-14.2-52.8-14.2c-19.3,0-36.8,4.7-52.5,14.2c-15.7,9.5-27.9,22.4-36.8,38.9
		c-8.9,16.4-13.3,35.1-13.3,56c0,20.5,4.4,39,13.3,55.4c8.9,16.4,21.2,29.4,36.8,38.9C122.7,397.8,140.2,402.5,159.6,402.5z"/>
	<path class="st0" d="M496.6,454.8c-28.2,0-53.6-7.1-76-21.2c-22.4-14.1-40.1-33.3-53.1-57.4c-13-24.2-19.4-51.5-19.4-82.1
		c0-30.5,7.1-58,21.2-82.4c14.1-24.4,33.3-43.6,57.4-57.7c24.2-14.1,51.3-21.2,81.5-21.2c30.2,0,57.2,7.1,81.2,21.2
		c24,14.1,43,33.4,57.1,57.7c14.1,24.4,21.2,51.8,21.2,82.4h-22.6c0,30.6-6.5,57.9-19.4,82.1c-13,24.2-30.7,43.3-53.1,57.4
		C550.2,447.7,524.8,454.8,496.6,454.8z M508.2,402.5c19.7,0,37.3-4.7,52.8-14.2c15.5-9.5,27.6-22.4,36.5-38.9
		c8.9-16.4,13.3-34.9,13.3-55.4c0-20.9-4.5-39.5-13.3-56c-8.9-16.4-21.1-29.4-36.5-38.9c-15.5-9.5-33.1-14.2-52.8-14.2
		c-19.3,0-36.8,4.7-52.5,14.2c-15.7,9.5-28,22.4-37.1,38.9c-9.1,16.4-13.6,35.1-13.6,56c0,20.5,4.5,39,13.6,55.4
		c9.1,16.4,21.5,29.4,37.1,38.9C471.4,397.8,488.8,402.5,508.2,402.5z M638.5,452.7c-8.5,0-15.5-2.8-21.1-8.4
		c-5.6-5.6-8.4-12.6-8.4-21.1v-88.5l11-61.3l48,20.8v129c0,8.5-2.8,15.5-8.4,21.1C654,449.9,647,452.7,638.5,452.7z"/>
	<path class="st0" d="M741,452.4c-9.3,0-16.4-2.4-21.5-7.2c-5-4.8-7.5-12.1-7.5-21.8V164.1c0-9.3,2.5-16.4,7.5-21.5
		c5-5,12.2-7.5,21.5-7.5c9.7,0,16.9,2.4,21.7,7.2c4.8,4.8,7.2,12.1,7.2,21.8v259.3c0,9.3-2.4,16.4-7.2,21.5
		C757.9,449.9,750.7,452.4,741,452.4z M740.8,254.1c0-23.2,5.7-44,17.1-62.4c11.4-18.4,26.8-33,46.1-43.8
		c19.3-10.8,40.6-16.2,63.8-16.2c23.2,0,40.5,3.8,51.9,11.3c11.4,7.5,15.8,16.5,13.1,27c-1.2,5.4-3.4,9.6-6.7,12.5
		c-3.3,2.9-7.1,4.7-11.3,5.5c-4.3,0.8-8.9,0.6-13.9-0.6c-24.8-5-47-5.4-66.7-1.2c-19.7,4.3-35.3,12.2-46.7,23.8
		c-11.4,11.6-17.1,26.3-17.1,44.1H740.8z"/>
	<path class="st0" d="M1071.9,454.1c-30.1,0-57.2-7-81.3-21.1c-24.1-14.1-43.2-33.3-57.3-57.6c-14.1-24.3-21.1-51.7-21.1-82.1
		c0-30.5,6.5-57.7,19.4-81.8c12.9-24.1,30.6-43.2,52.9-57.3c22.4-14.1,47.6-21.1,75.8-21.1c22.7,0,43.8,4.7,63,14.2
		c19.3,9.5,35.5,22.3,48.6,38.5V29.5c0-8.9,2.8-16,8.4-21.4C1186,2.7,1193,0,1201.5,0c8.9,0,16,2.7,21.4,8.1
		c5.4,5.4,8.1,12.5,8.1,21.4v263.8c0,30.5-7,57.8-21.1,82.1c-14.1,24.3-33.1,43.5-57,57.6C1129,447,1102,454.1,1071.9,454.1z
		 M1071.5,402.5c19.7,0,37.3-4.7,52.8-14.2c15.5-9.5,27.6-22.5,36.5-39.2c8.9-16.6,13.3-35.2,13.3-55.7c0-20.9-4.5-39.4-13.3-55.7
		c-8.9-16.2-21.1-29.1-36.5-38.6c-15.5-9.5-33.1-14.2-52.8-14.2c-19.3,0-36.8,4.7-52.5,14.2c-15.7,9.5-28,22.3-37.1,38.6
		c-9.1,16.2-13.6,34.8-13.6,55.7c0,20.5,4.5,39.1,13.6,55.7c9.1,16.6,21.5,29.7,37.1,39.2C1034.6,397.8,1052.1,402.5,1071.5,402.5z"
		/>
</g>
</svg>
